<mxfile host="app.diagrams.net" modified="2024-03-28T14:32:54.196Z" agent="Mozilla/5.0 (Windows NT 10.0; Win64; x64; rv:124.0) Gecko/20100101 Firefox/124.0" etag="0a0-s6O5R2V-hEia8JZ0" version="24.0.1" type="device">
  <diagram name="Pagina-1" id="tcXBAqMf-PqoO9-0yqOo">
    <mxGraphModel dx="2117" dy="558" grid="1" gridSize="10" guides="1" tooltips="1" connect="1" arrows="1" fold="1" page="1" pageScale="1" pageWidth="827" pageHeight="1169" math="0" shadow="0">
      <root>
        <mxCell id="0" />
        <mxCell id="1" parent="0" />
        <mxCell id="bfzXdQS3I7iuDDoht_DV-1" value="STUDENTE" style="rounded=0;whiteSpace=wrap;html=1;" parent="1" vertex="1">
          <mxGeometry x="82" y="365" width="120" height="60" as="geometry" />
        </mxCell>
        <mxCell id="bfzXdQS3I7iuDDoht_DV-3" value="AZIENDA" style="rounded=0;whiteSpace=wrap;html=1;" parent="1" vertex="1">
          <mxGeometry x="562" y="715" width="120" height="60" as="geometry" />
        </mxCell>
        <mxCell id="bfzXdQS3I7iuDDoht_DV-4" value="scrive" style="rhombus;whiteSpace=wrap;html=1;" parent="1" vertex="1">
          <mxGeometry x="364" y="355" width="80" height="80" as="geometry" />
        </mxCell>
        <mxCell id="bfzXdQS3I7iuDDoht_DV-5" value="appartiene" style="rhombus;whiteSpace=wrap;html=1;" parent="1" vertex="1">
          <mxGeometry x="582" y="515" width="80" height="80" as="geometry" />
        </mxCell>
        <mxCell id="bfzXdQS3I7iuDDoht_DV-6" value="" style="endArrow=none;html=1;rounded=0;entryX=1;entryY=0.5;entryDx=0;entryDy=0;exitX=0;exitY=0.5;exitDx=0;exitDy=0;" parent="1" source="bfzXdQS3I7iuDDoht_DV-4" target="bfzXdQS3I7iuDDoht_DV-1" edge="1">
          <mxGeometry width="50" height="50" relative="1" as="geometry">
            <mxPoint x="401" y="585" as="sourcePoint" />
            <mxPoint x="451" y="535" as="targetPoint" />
          </mxGeometry>
        </mxCell>
        <mxCell id="bfzXdQS3I7iuDDoht_DV-124" value="1" style="edgeLabel;html=1;align=center;verticalAlign=middle;resizable=0;points=[];" parent="bfzXdQS3I7iuDDoht_DV-6" vertex="1" connectable="0">
          <mxGeometry x="-0.85" y="2" relative="1" as="geometry">
            <mxPoint as="offset" />
          </mxGeometry>
        </mxCell>
        <mxCell id="bfzXdQS3I7iuDDoht_DV-7" value="" style="endArrow=none;html=1;rounded=0;entryX=0;entryY=0.5;entryDx=0;entryDy=0;exitX=1;exitY=0.5;exitDx=0;exitDy=0;entryPerimeter=0;" parent="1" source="bfzXdQS3I7iuDDoht_DV-4" edge="1">
          <mxGeometry width="50" height="50" relative="1" as="geometry">
            <mxPoint x="431" y="495" as="sourcePoint" />
            <mxPoint x="572" y="395" as="targetPoint" />
          </mxGeometry>
        </mxCell>
        <mxCell id="bfzXdQS3I7iuDDoht_DV-128" value="N" style="edgeLabel;html=1;align=center;verticalAlign=middle;resizable=0;points=[];" parent="bfzXdQS3I7iuDDoht_DV-7" vertex="1" connectable="0">
          <mxGeometry x="-0.7031" y="-3" relative="1" as="geometry">
            <mxPoint as="offset" />
          </mxGeometry>
        </mxCell>
        <mxCell id="bfzXdQS3I7iuDDoht_DV-8" value="" style="endArrow=none;html=1;rounded=0;entryX=0.5;entryY=0;entryDx=0;entryDy=0;exitX=0.5;exitY=1;exitDx=0;exitDy=0;exitPerimeter=0;" parent="1" target="bfzXdQS3I7iuDDoht_DV-5" edge="1">
          <mxGeometry width="50" height="50" relative="1" as="geometry">
            <mxPoint x="622" y="425" as="sourcePoint" />
            <mxPoint x="661" y="465" as="targetPoint" />
          </mxGeometry>
        </mxCell>
        <mxCell id="uaoDRE2ud9fjamOJprQ8-32" value="N" style="edgeLabel;html=1;align=center;verticalAlign=middle;resizable=0;points=[];" parent="bfzXdQS3I7iuDDoht_DV-8" vertex="1" connectable="0">
          <mxGeometry x="0.5948" y="2" relative="1" as="geometry">
            <mxPoint as="offset" />
          </mxGeometry>
        </mxCell>
        <mxCell id="bfzXdQS3I7iuDDoht_DV-9" value="" style="endArrow=none;html=1;rounded=0;entryX=0.5;entryY=0;entryDx=0;entryDy=0;exitX=0.5;exitY=1;exitDx=0;exitDy=0;" parent="1" source="bfzXdQS3I7iuDDoht_DV-5" target="bfzXdQS3I7iuDDoht_DV-3" edge="1">
          <mxGeometry width="50" height="50" relative="1" as="geometry">
            <mxPoint x="761" y="505" as="sourcePoint" />
            <mxPoint x="811" y="455" as="targetPoint" />
          </mxGeometry>
        </mxCell>
        <mxCell id="uaoDRE2ud9fjamOJprQ8-31" value="1" style="edgeLabel;html=1;align=center;verticalAlign=middle;resizable=0;points=[];" parent="bfzXdQS3I7iuDDoht_DV-9" vertex="1" connectable="0">
          <mxGeometry x="-0.7353" y="1" relative="1" as="geometry">
            <mxPoint y="1" as="offset" />
          </mxGeometry>
        </mxCell>
        <mxCell id="bfzXdQS3I7iuDDoht_DV-10" value="AMMINISTRATORE" style="rounded=0;whiteSpace=wrap;html=1;" parent="1" vertex="1">
          <mxGeometry x="82" y="865" width="120" height="60" as="geometry" />
        </mxCell>
        <mxCell id="bfzXdQS3I7iuDDoht_DV-11" value="assegna" style="rhombus;whiteSpace=wrap;html=1;" parent="1" vertex="1">
          <mxGeometry x="102" y="705" width="80" height="80" as="geometry" />
        </mxCell>
        <mxCell id="bfzXdQS3I7iuDDoht_DV-12" value="" style="endArrow=none;html=1;rounded=0;entryX=0.5;entryY=1;entryDx=0;entryDy=0;exitX=0.5;exitY=0;exitDx=0;exitDy=0;" parent="1" source="bfzXdQS3I7iuDDoht_DV-11" target="bfzXdQS3I7iuDDoht_DV-1" edge="1">
          <mxGeometry width="50" height="50" relative="1" as="geometry">
            <mxPoint x="511" y="645" as="sourcePoint" />
            <mxPoint x="561" y="595" as="targetPoint" />
          </mxGeometry>
        </mxCell>
        <mxCell id="uaoDRE2ud9fjamOJprQ8-28" value="N" style="edgeLabel;html=1;align=center;verticalAlign=middle;resizable=0;points=[];" parent="bfzXdQS3I7iuDDoht_DV-12" vertex="1" connectable="0">
          <mxGeometry x="-0.8908" y="4" relative="1" as="geometry">
            <mxPoint as="offset" />
          </mxGeometry>
        </mxCell>
        <mxCell id="bfzXdQS3I7iuDDoht_DV-13" value="" style="endArrow=none;html=1;rounded=0;entryX=0.5;entryY=1;entryDx=0;entryDy=0;exitX=0.5;exitY=0;exitDx=0;exitDy=0;" parent="1" source="bfzXdQS3I7iuDDoht_DV-10" target="bfzXdQS3I7iuDDoht_DV-11" edge="1">
          <mxGeometry width="50" height="50" relative="1" as="geometry">
            <mxPoint x="432" y="645" as="sourcePoint" />
            <mxPoint x="482" y="595" as="targetPoint" />
          </mxGeometry>
        </mxCell>
        <mxCell id="uaoDRE2ud9fjamOJprQ8-26" value="1" style="edgeLabel;html=1;align=center;verticalAlign=middle;resizable=0;points=[];" parent="bfzXdQS3I7iuDDoht_DV-13" vertex="1" connectable="0">
          <mxGeometry x="0.6176" relative="1" as="geometry">
            <mxPoint as="offset" />
          </mxGeometry>
        </mxCell>
        <mxCell id="bfzXdQS3I7iuDDoht_DV-14" value="" style="endArrow=none;html=1;rounded=0;exitX=1;exitY=0.5;exitDx=0;exitDy=0;entryX=0;entryY=0.5;entryDx=0;entryDy=0;" parent="1" source="bfzXdQS3I7iuDDoht_DV-11" target="bfzXdQS3I7iuDDoht_DV-3" edge="1">
          <mxGeometry width="50" height="50" relative="1" as="geometry">
            <mxPoint x="662" y="645" as="sourcePoint" />
            <mxPoint x="712" y="595" as="targetPoint" />
          </mxGeometry>
        </mxCell>
        <mxCell id="uaoDRE2ud9fjamOJprQ8-27" value="1" style="edgeLabel;html=1;align=center;verticalAlign=middle;resizable=0;points=[];" parent="bfzXdQS3I7iuDDoht_DV-14" vertex="1" connectable="0">
          <mxGeometry x="-0.9015" relative="1" as="geometry">
            <mxPoint as="offset" />
          </mxGeometry>
        </mxCell>
        <mxCell id="bfzXdQS3I7iuDDoht_DV-16" value="ha" style="rhombus;whiteSpace=wrap;html=1;" parent="1" vertex="1">
          <mxGeometry x="582" y="855" width="80" height="80" as="geometry" />
        </mxCell>
        <mxCell id="bfzXdQS3I7iuDDoht_DV-17" value="" style="endArrow=none;html=1;rounded=0;exitX=0.5;exitY=1;exitDx=0;exitDy=0;entryX=0.5;entryY=0;entryDx=0;entryDy=0;" parent="1" source="bfzXdQS3I7iuDDoht_DV-3" target="bfzXdQS3I7iuDDoht_DV-16" edge="1">
          <mxGeometry width="50" height="50" relative="1" as="geometry">
            <mxPoint x="662" y="645" as="sourcePoint" />
            <mxPoint x="712" y="595" as="targetPoint" />
          </mxGeometry>
        </mxCell>
        <mxCell id="uaoDRE2ud9fjamOJprQ8-29" value="1" style="edgeLabel;html=1;align=center;verticalAlign=middle;resizable=0;points=[];" parent="bfzXdQS3I7iuDDoht_DV-17" vertex="1" connectable="0">
          <mxGeometry x="0.6324" relative="1" as="geometry">
            <mxPoint y="-1" as="offset" />
          </mxGeometry>
        </mxCell>
        <mxCell id="bfzXdQS3I7iuDDoht_DV-18" value="" style="endArrow=none;html=1;rounded=0;entryX=0;entryY=0.5;entryDx=0;entryDy=0;exitX=1;exitY=0.5;exitDx=0;exitDy=0;entryPerimeter=0;" parent="1" source="bfzXdQS3I7iuDDoht_DV-16" edge="1">
          <mxGeometry width="50" height="50" relative="1" as="geometry">
            <mxPoint x="526" y="955" as="sourcePoint" />
            <mxPoint x="706" y="895" as="targetPoint" />
          </mxGeometry>
        </mxCell>
        <mxCell id="uaoDRE2ud9fjamOJprQ8-30" value="N" style="edgeLabel;html=1;align=center;verticalAlign=middle;resizable=0;points=[];" parent="bfzXdQS3I7iuDDoht_DV-18" vertex="1" connectable="0">
          <mxGeometry x="-0.5241" y="1" relative="1" as="geometry">
            <mxPoint as="offset" />
          </mxGeometry>
        </mxCell>
        <mxCell id="bfzXdQS3I7iuDDoht_DV-21" value="preferisce" style="rhombus;whiteSpace=wrap;html=1;" parent="1" vertex="1">
          <mxGeometry x="322" y="515" width="80" height="80" as="geometry" />
        </mxCell>
        <mxCell id="bfzXdQS3I7iuDDoht_DV-24" value="" style="endArrow=none;html=1;rounded=0;entryX=1;entryY=1;entryDx=0;entryDy=0;exitX=0;exitY=0;exitDx=0;exitDy=0;" parent="1" source="bfzXdQS3I7iuDDoht_DV-3" target="bfzXdQS3I7iuDDoht_DV-21" edge="1">
          <mxGeometry width="50" height="50" relative="1" as="geometry">
            <mxPoint x="662" y="705" as="sourcePoint" />
            <mxPoint x="511" y="665" as="targetPoint" />
          </mxGeometry>
        </mxCell>
        <mxCell id="bfzXdQS3I7iuDDoht_DV-82" value="N" style="edgeLabel;html=1;align=center;verticalAlign=middle;resizable=0;points=[];" parent="bfzXdQS3I7iuDDoht_DV-24" vertex="1" connectable="0">
          <mxGeometry x="0.8454" y="1" relative="1" as="geometry">
            <mxPoint x="-1" as="offset" />
          </mxGeometry>
        </mxCell>
        <mxCell id="bfzXdQS3I7iuDDoht_DV-27" value="" style="endArrow=none;html=1;rounded=0;entryX=0;entryY=0;entryDx=0;entryDy=0;exitX=1;exitY=1;exitDx=0;exitDy=0;" parent="1" source="bfzXdQS3I7iuDDoht_DV-1" target="bfzXdQS3I7iuDDoht_DV-21" edge="1">
          <mxGeometry width="50" height="50" relative="1" as="geometry">
            <mxPoint x="142" y="595" as="sourcePoint" />
            <mxPoint x="212" y="465" as="targetPoint" />
          </mxGeometry>
        </mxCell>
        <mxCell id="bfzXdQS3I7iuDDoht_DV-79" value="1" style="edgeLabel;html=1;align=center;verticalAlign=middle;resizable=0;points=[];" parent="bfzXdQS3I7iuDDoht_DV-27" vertex="1" connectable="0">
          <mxGeometry x="0.8454" y="-2" relative="1" as="geometry">
            <mxPoint as="offset" />
          </mxGeometry>
        </mxCell>
        <mxCell id="bfzXdQS3I7iuDDoht_DV-35" value="compila" style="rhombus;whiteSpace=wrap;html=1;" parent="1" vertex="1">
          <mxGeometry x="102" y="165" width="80" height="80" as="geometry" />
        </mxCell>
        <mxCell id="bfzXdQS3I7iuDDoht_DV-36" value="" style="endArrow=none;html=1;rounded=0;entryX=1;entryY=0.5;entryDx=0;entryDy=0;exitX=0;exitY=0.5;exitDx=0;exitDy=0;exitPerimeter=0;" parent="1" target="bfzXdQS3I7iuDDoht_DV-35" edge="1">
          <mxGeometry width="50" height="50" relative="1" as="geometry">
            <mxPoint x="352" y="205" as="sourcePoint" />
            <mxPoint x="712" y="505" as="targetPoint" />
          </mxGeometry>
        </mxCell>
        <mxCell id="uaoDRE2ud9fjamOJprQ8-34" value="1" style="edgeLabel;html=1;align=center;verticalAlign=middle;resizable=0;points=[];" parent="bfzXdQS3I7iuDDoht_DV-36" vertex="1" connectable="0">
          <mxGeometry x="0.8215" y="2" relative="1" as="geometry">
            <mxPoint as="offset" />
          </mxGeometry>
        </mxCell>
        <mxCell id="bfzXdQS3I7iuDDoht_DV-38" value="" style="endArrow=none;html=1;rounded=0;entryX=0.5;entryY=1;entryDx=0;entryDy=0;exitX=0.5;exitY=0;exitDx=0;exitDy=0;" parent="1" source="bfzXdQS3I7iuDDoht_DV-1" target="bfzXdQS3I7iuDDoht_DV-35" edge="1">
          <mxGeometry width="50" height="50" relative="1" as="geometry">
            <mxPoint x="662" y="555" as="sourcePoint" />
            <mxPoint x="712" y="505" as="targetPoint" />
          </mxGeometry>
        </mxCell>
        <mxCell id="uaoDRE2ud9fjamOJprQ8-33" value="1" style="edgeLabel;html=1;align=center;verticalAlign=middle;resizable=0;points=[];" parent="bfzXdQS3I7iuDDoht_DV-38" vertex="1" connectable="0">
          <mxGeometry x="-0.7059" y="-2" relative="1" as="geometry">
            <mxPoint x="-2" y="-87" as="offset" />
          </mxGeometry>
        </mxCell>
        <mxCell id="bfzXdQS3I7iuDDoht_DV-43" value="nome" style="ellipse;whiteSpace=wrap;html=1;" parent="1" vertex="1">
          <mxGeometry x="52" y="245" width="70" height="50" as="geometry" />
        </mxCell>
        <mxCell id="bfzXdQS3I7iuDDoht_DV-44" value="mail" style="ellipse;whiteSpace=wrap;html=1;" parent="1" vertex="1">
          <mxGeometry y="435" width="70" height="50" as="geometry" />
        </mxCell>
        <mxCell id="bfzXdQS3I7iuDDoht_DV-46" value="cognome" style="ellipse;whiteSpace=wrap;html=1;" parent="1" vertex="1">
          <mxGeometry x="-10" y="285" width="70" height="50" as="geometry" />
        </mxCell>
        <mxCell id="bfzXdQS3I7iuDDoht_DV-47" value="&lt;u&gt;id&lt;/u&gt;" style="ellipse;whiteSpace=wrap;html=1;" parent="1" vertex="1">
          <mxGeometry x="70" y="465" width="70" height="50" as="geometry" />
        </mxCell>
        <mxCell id="bfzXdQS3I7iuDDoht_DV-48" value="" style="endArrow=none;html=1;rounded=0;entryX=0.5;entryY=1;entryDx=0;entryDy=0;exitX=0.25;exitY=0;exitDx=0;exitDy=0;" parent="1" source="bfzXdQS3I7iuDDoht_DV-1" target="bfzXdQS3I7iuDDoht_DV-43" edge="1">
          <mxGeometry width="50" height="50" relative="1" as="geometry">
            <mxPoint x="200" y="395" as="sourcePoint" />
            <mxPoint x="250" y="345" as="targetPoint" />
          </mxGeometry>
        </mxCell>
        <mxCell id="bfzXdQS3I7iuDDoht_DV-49" value="" style="endArrow=none;html=1;rounded=0;entryX=1;entryY=1;entryDx=0;entryDy=0;exitX=0;exitY=0;exitDx=0;exitDy=0;" parent="1" source="bfzXdQS3I7iuDDoht_DV-1" target="bfzXdQS3I7iuDDoht_DV-46" edge="1">
          <mxGeometry width="50" height="50" relative="1" as="geometry">
            <mxPoint x="480" y="535" as="sourcePoint" />
            <mxPoint x="530" y="485" as="targetPoint" />
          </mxGeometry>
        </mxCell>
        <mxCell id="bfzXdQS3I7iuDDoht_DV-51" value="" style="endArrow=none;html=1;rounded=0;entryX=1;entryY=0;entryDx=0;entryDy=0;exitX=0;exitY=0.75;exitDx=0;exitDy=0;" parent="1" source="bfzXdQS3I7iuDDoht_DV-1" target="bfzXdQS3I7iuDDoht_DV-44" edge="1">
          <mxGeometry width="50" height="50" relative="1" as="geometry">
            <mxPoint x="480" y="535" as="sourcePoint" />
            <mxPoint x="530" y="485" as="targetPoint" />
          </mxGeometry>
        </mxCell>
        <mxCell id="bfzXdQS3I7iuDDoht_DV-52" value="" style="endArrow=none;html=1;rounded=0;entryX=0.25;entryY=1;entryDx=0;entryDy=0;exitX=0.5;exitY=0;exitDx=0;exitDy=0;" parent="1" source="bfzXdQS3I7iuDDoht_DV-47" target="bfzXdQS3I7iuDDoht_DV-1" edge="1">
          <mxGeometry width="50" height="50" relative="1" as="geometry">
            <mxPoint x="480" y="535" as="sourcePoint" />
            <mxPoint x="120" y="435" as="targetPoint" />
          </mxGeometry>
        </mxCell>
        <mxCell id="bfzXdQS3I7iuDDoht_DV-53" value="&lt;u&gt;id&lt;/u&gt;" style="ellipse;whiteSpace=wrap;html=1;" parent="1" vertex="1">
          <mxGeometry x="706" y="415" width="70" height="50" as="geometry" />
        </mxCell>
        <mxCell id="bfzXdQS3I7iuDDoht_DV-55" value="commento" style="ellipse;whiteSpace=wrap;html=1;" parent="1" vertex="1">
          <mxGeometry x="502" y="305" width="70" height="50" as="geometry" />
        </mxCell>
        <mxCell id="bfzXdQS3I7iuDDoht_DV-56" value="idAzienda" style="ellipse;whiteSpace=wrap;html=1;" parent="1" vertex="1">
          <mxGeometry x="587" y="285" width="70" height="50" as="geometry" />
        </mxCell>
        <mxCell id="bfzXdQS3I7iuDDoht_DV-57" value="voto" style="ellipse;whiteSpace=wrap;html=1;" parent="1" vertex="1">
          <mxGeometry x="672" y="295" width="70" height="50" as="geometry" />
        </mxCell>
        <mxCell id="bfzXdQS3I7iuDDoht_DV-58" value="" style="endArrow=none;html=1;rounded=0;exitX=0;exitY=0;exitDx=0;exitDy=0;exitPerimeter=0;entryX=1;entryY=1;entryDx=0;entryDy=0;" parent="1" target="bfzXdQS3I7iuDDoht_DV-55" edge="1">
          <mxGeometry width="50" height="50" relative="1" as="geometry">
            <mxPoint x="572" y="365" as="sourcePoint" />
            <mxPoint x="590" y="175" as="targetPoint" />
          </mxGeometry>
        </mxCell>
        <mxCell id="bfzXdQS3I7iuDDoht_DV-59" value="" style="endArrow=none;html=1;rounded=0;entryX=0.5;entryY=1;entryDx=0;entryDy=0;exitX=0.5;exitY=0;exitDx=0;exitDy=0;exitPerimeter=0;" parent="1" target="bfzXdQS3I7iuDDoht_DV-56" edge="1">
          <mxGeometry width="50" height="50" relative="1" as="geometry">
            <mxPoint x="622" y="365" as="sourcePoint" />
            <mxPoint x="530" y="485" as="targetPoint" />
          </mxGeometry>
        </mxCell>
        <mxCell id="bfzXdQS3I7iuDDoht_DV-60" value="" style="endArrow=none;html=1;rounded=0;entryX=0;entryY=1;entryDx=0;entryDy=0;exitX=1;exitY=0;exitDx=0;exitDy=0;exitPerimeter=0;" parent="1" target="bfzXdQS3I7iuDDoht_DV-57" edge="1">
          <mxGeometry width="50" height="50" relative="1" as="geometry">
            <mxPoint x="672" y="365" as="sourcePoint" />
            <mxPoint x="530" y="485" as="targetPoint" />
          </mxGeometry>
        </mxCell>
        <mxCell id="bfzXdQS3I7iuDDoht_DV-62" value="" style="endArrow=none;html=1;rounded=0;entryX=1;entryY=1;entryDx=0;entryDy=0;entryPerimeter=0;exitX=0;exitY=0.5;exitDx=0;exitDy=0;" parent="1" source="bfzXdQS3I7iuDDoht_DV-53" edge="1">
          <mxGeometry width="50" height="50" relative="1" as="geometry">
            <mxPoint x="480" y="535" as="sourcePoint" />
            <mxPoint x="672" y="425" as="targetPoint" />
          </mxGeometry>
        </mxCell>
        <mxCell id="bfzXdQS3I7iuDDoht_DV-63" value="entrataPom" style="ellipse;whiteSpace=wrap;html=1;" parent="1" vertex="1">
          <mxGeometry x="367" y="265" width="70" height="50" as="geometry" />
        </mxCell>
        <mxCell id="bfzXdQS3I7iuDDoht_DV-64" value="uscitaPom" style="ellipse;whiteSpace=wrap;html=1;" parent="1" vertex="1">
          <mxGeometry x="262" y="235" width="70" height="50" as="geometry" />
        </mxCell>
        <mxCell id="bfzXdQS3I7iuDDoht_DV-65" value="&lt;u&gt;id&lt;/u&gt;" style="ellipse;whiteSpace=wrap;html=1;" parent="1" vertex="1">
          <mxGeometry x="237" y="140" width="70" height="50" as="geometry" />
        </mxCell>
        <mxCell id="bfzXdQS3I7iuDDoht_DV-66" value="descrizione" style="ellipse;whiteSpace=wrap;html=1;" parent="1" vertex="1">
          <mxGeometry x="292" y="85" width="70" height="50" as="geometry" />
        </mxCell>
        <mxCell id="bfzXdQS3I7iuDDoht_DV-67" value="giorno" style="ellipse;whiteSpace=wrap;html=1;" parent="1" vertex="1">
          <mxGeometry x="372" y="70" width="70" height="50" as="geometry" />
        </mxCell>
        <mxCell id="bfzXdQS3I7iuDDoht_DV-68" value="idStudente" style="ellipse;whiteSpace=wrap;html=1;" parent="1" vertex="1">
          <mxGeometry x="492" y="120" width="70" height="50" as="geometry" />
        </mxCell>
        <mxCell id="bfzXdQS3I7iuDDoht_DV-69" value="entrataMat" style="ellipse;whiteSpace=wrap;html=1;" parent="1" vertex="1">
          <mxGeometry x="500" y="180" width="70" height="50" as="geometry" />
        </mxCell>
        <mxCell id="bfzXdQS3I7iuDDoht_DV-70" value="uscitaMat" style="ellipse;whiteSpace=wrap;html=1;" parent="1" vertex="1">
          <mxGeometry x="480" y="235" width="70" height="50" as="geometry" />
        </mxCell>
        <mxCell id="bfzXdQS3I7iuDDoht_DV-71" value="" style="endArrow=none;html=1;rounded=0;entryX=0;entryY=0;entryDx=0;entryDy=45;entryPerimeter=0;exitX=1;exitY=0;exitDx=0;exitDy=0;" parent="1" source="bfzXdQS3I7iuDDoht_DV-64" edge="1">
          <mxGeometry width="50" height="50" relative="1" as="geometry">
            <mxPoint x="210" y="325" as="sourcePoint" />
            <mxPoint x="352" y="220" as="targetPoint" />
          </mxGeometry>
        </mxCell>
        <mxCell id="bfzXdQS3I7iuDDoht_DV-72" value="" style="endArrow=none;html=1;rounded=0;entryX=0.5;entryY=1;entryDx=0;entryDy=0;entryPerimeter=0;exitX=0.5;exitY=0;exitDx=0;exitDy=0;" parent="1" source="bfzXdQS3I7iuDDoht_DV-63" edge="1">
          <mxGeometry width="50" height="50" relative="1" as="geometry">
            <mxPoint x="330" y="345" as="sourcePoint" />
            <mxPoint x="402" y="235" as="targetPoint" />
          </mxGeometry>
        </mxCell>
        <mxCell id="bfzXdQS3I7iuDDoht_DV-73" value="" style="endArrow=none;html=1;rounded=0;entryX=1;entryY=1;entryDx=0;entryDy=0;entryPerimeter=0;exitX=0;exitY=0;exitDx=0;exitDy=0;" parent="1" source="bfzXdQS3I7iuDDoht_DV-70" edge="1">
          <mxGeometry width="50" height="50" relative="1" as="geometry">
            <mxPoint x="480" y="445" as="sourcePoint" />
            <mxPoint x="452" y="235" as="targetPoint" />
          </mxGeometry>
        </mxCell>
        <mxCell id="bfzXdQS3I7iuDDoht_DV-74" value="" style="endArrow=none;html=1;rounded=0;entryX=1;entryY=0.5;entryDx=0;entryDy=0;entryPerimeter=0;exitX=0;exitY=0.5;exitDx=0;exitDy=0;" parent="1" source="bfzXdQS3I7iuDDoht_DV-69" edge="1">
          <mxGeometry width="50" height="50" relative="1" as="geometry">
            <mxPoint x="480" y="445" as="sourcePoint" />
            <mxPoint x="452" y="205" as="targetPoint" />
          </mxGeometry>
        </mxCell>
        <mxCell id="bfzXdQS3I7iuDDoht_DV-75" value="" style="endArrow=none;html=1;rounded=0;entryX=0;entryY=1;entryDx=0;entryDy=0;exitX=1;exitY=0;exitDx=0;exitDy=0;exitPerimeter=0;" parent="1" target="bfzXdQS3I7iuDDoht_DV-68" edge="1">
          <mxGeometry width="50" height="50" relative="1" as="geometry">
            <mxPoint x="452" y="175" as="sourcePoint" />
            <mxPoint x="530" y="395" as="targetPoint" />
          </mxGeometry>
        </mxCell>
        <mxCell id="bfzXdQS3I7iuDDoht_DV-76" value="" style="endArrow=none;html=1;rounded=0;entryX=0.5;entryY=1;entryDx=0;entryDy=0;exitX=0.5;exitY=0;exitDx=0;exitDy=0;exitPerimeter=0;" parent="1" target="bfzXdQS3I7iuDDoht_DV-67" edge="1">
          <mxGeometry width="50" height="50" relative="1" as="geometry">
            <mxPoint x="402" y="175" as="sourcePoint" />
            <mxPoint x="530" y="395" as="targetPoint" />
          </mxGeometry>
        </mxCell>
        <mxCell id="bfzXdQS3I7iuDDoht_DV-77" value="" style="endArrow=none;html=1;rounded=0;entryX=1;entryY=1;entryDx=0;entryDy=0;exitX=0;exitY=0;exitDx=25;exitDy=0;exitPerimeter=0;" parent="1" target="bfzXdQS3I7iuDDoht_DV-66" edge="1">
          <mxGeometry width="50" height="50" relative="1" as="geometry">
            <mxPoint x="377" y="175" as="sourcePoint" />
            <mxPoint x="530" y="395" as="targetPoint" />
          </mxGeometry>
        </mxCell>
        <mxCell id="bfzXdQS3I7iuDDoht_DV-78" value="" style="endArrow=none;html=1;rounded=0;entryX=1;entryY=0.5;entryDx=0;entryDy=0;exitX=0;exitY=0;exitDx=0;exitDy=15;exitPerimeter=0;" parent="1" target="bfzXdQS3I7iuDDoht_DV-65" edge="1">
          <mxGeometry width="50" height="50" relative="1" as="geometry">
            <mxPoint x="352" y="190" as="sourcePoint" />
            <mxPoint x="530" y="395" as="targetPoint" />
          </mxGeometry>
        </mxCell>
        <mxCell id="bfzXdQS3I7iuDDoht_DV-88" value="descrizione" style="ellipse;whiteSpace=wrap;html=1;" parent="1" vertex="1">
          <mxGeometry x="721" y="775" width="70" height="50" as="geometry" />
        </mxCell>
        <mxCell id="bfzXdQS3I7iuDDoht_DV-89" value="indirizzo" style="ellipse;whiteSpace=wrap;html=1;" parent="1" vertex="1">
          <mxGeometry x="640" y="615" width="70" height="50" as="geometry" />
        </mxCell>
        <mxCell id="bfzXdQS3I7iuDDoht_DV-90" value="nome" style="ellipse;whiteSpace=wrap;html=1;" parent="1" vertex="1">
          <mxGeometry x="736" y="715" width="70" height="50" as="geometry" />
        </mxCell>
        <mxCell id="bfzXdQS3I7iuDDoht_DV-91" value="&lt;u&gt;id&lt;/u&gt;" style="ellipse;whiteSpace=wrap;html=1;" parent="1" vertex="1">
          <mxGeometry x="726" y="645" width="70" height="50" as="geometry" />
        </mxCell>
        <mxCell id="bfzXdQS3I7iuDDoht_DV-92" value="" style="endArrow=none;html=1;rounded=0;entryX=0.5;entryY=1;entryDx=0;entryDy=0;exitX=0.75;exitY=0;exitDx=0;exitDy=0;" parent="1" source="bfzXdQS3I7iuDDoht_DV-3" target="bfzXdQS3I7iuDDoht_DV-89" edge="1">
          <mxGeometry width="50" height="50" relative="1" as="geometry">
            <mxPoint x="460" y="875" as="sourcePoint" />
            <mxPoint x="510" y="825" as="targetPoint" />
          </mxGeometry>
        </mxCell>
        <mxCell id="bfzXdQS3I7iuDDoht_DV-93" value="" style="endArrow=none;html=1;rounded=0;exitX=1;exitY=0;exitDx=0;exitDy=0;" parent="1" source="bfzXdQS3I7iuDDoht_DV-3" target="bfzXdQS3I7iuDDoht_DV-91" edge="1">
          <mxGeometry width="50" height="50" relative="1" as="geometry">
            <mxPoint x="580" y="715" as="sourcePoint" />
            <mxPoint x="630" y="665" as="targetPoint" />
          </mxGeometry>
        </mxCell>
        <mxCell id="bfzXdQS3I7iuDDoht_DV-94" value="" style="endArrow=none;html=1;rounded=0;entryX=0;entryY=0.5;entryDx=0;entryDy=0;exitX=1;exitY=0.5;exitDx=0;exitDy=0;" parent="1" source="bfzXdQS3I7iuDDoht_DV-3" target="bfzXdQS3I7iuDDoht_DV-90" edge="1">
          <mxGeometry width="50" height="50" relative="1" as="geometry">
            <mxPoint x="480" y="655" as="sourcePoint" />
            <mxPoint x="530" y="605" as="targetPoint" />
          </mxGeometry>
        </mxCell>
        <mxCell id="bfzXdQS3I7iuDDoht_DV-95" value="" style="endArrow=none;html=1;rounded=0;entryX=0;entryY=0.5;entryDx=0;entryDy=0;exitX=1;exitY=1;exitDx=0;exitDy=0;" parent="1" source="bfzXdQS3I7iuDDoht_DV-3" target="bfzXdQS3I7iuDDoht_DV-88" edge="1">
          <mxGeometry width="50" height="50" relative="1" as="geometry">
            <mxPoint x="660" y="855" as="sourcePoint" />
            <mxPoint x="710" y="805" as="targetPoint" />
          </mxGeometry>
        </mxCell>
        <mxCell id="bfzXdQS3I7iuDDoht_DV-96" value="numTel" style="ellipse;whiteSpace=wrap;html=1;" parent="1" vertex="1">
          <mxGeometry x="820" y="955" width="70" height="50" as="geometry" />
        </mxCell>
        <mxCell id="bfzXdQS3I7iuDDoht_DV-97" value="&lt;u&gt;id&lt;/u&gt;" style="ellipse;whiteSpace=wrap;html=1;" parent="1" vertex="1">
          <mxGeometry x="830" y="815" width="70" height="50" as="geometry" />
        </mxCell>
        <mxCell id="bfzXdQS3I7iuDDoht_DV-98" value="email" style="ellipse;whiteSpace=wrap;html=1;" parent="1" vertex="1">
          <mxGeometry x="850" y="883" width="70" height="50" as="geometry" />
        </mxCell>
        <mxCell id="bfzXdQS3I7iuDDoht_DV-99" value="nome" style="ellipse;whiteSpace=wrap;html=1;" parent="1" vertex="1">
          <mxGeometry x="640" y="955" width="70" height="50" as="geometry" />
        </mxCell>
        <mxCell id="bfzXdQS3I7iuDDoht_DV-100" value="cognome" style="ellipse;whiteSpace=wrap;html=1;" parent="1" vertex="1">
          <mxGeometry x="721" y="965" width="70" height="50" as="geometry" />
        </mxCell>
        <mxCell id="bfzXdQS3I7iuDDoht_DV-102" value="" style="endArrow=none;html=1;rounded=0;entryX=0;entryY=1;entryDx=0;entryDy=0;entryPerimeter=0;exitX=0.5;exitY=0;exitDx=0;exitDy=0;" parent="1" source="bfzXdQS3I7iuDDoht_DV-99" edge="1">
          <mxGeometry width="50" height="50" relative="1" as="geometry">
            <mxPoint x="620" y="1045" as="sourcePoint" />
            <mxPoint x="706" y="925" as="targetPoint" />
          </mxGeometry>
        </mxCell>
        <mxCell id="bfzXdQS3I7iuDDoht_DV-103" value="" style="endArrow=none;html=1;rounded=0;entryX=0.5;entryY=1;entryDx=0;entryDy=0;entryPerimeter=0;exitX=0.5;exitY=0;exitDx=0;exitDy=0;" parent="1" source="bfzXdQS3I7iuDDoht_DV-100" edge="1">
          <mxGeometry width="50" height="50" relative="1" as="geometry">
            <mxPoint x="690" y="1055" as="sourcePoint" />
            <mxPoint x="756" y="925" as="targetPoint" />
          </mxGeometry>
        </mxCell>
        <mxCell id="bfzXdQS3I7iuDDoht_DV-104" value="" style="endArrow=none;html=1;rounded=0;entryX=1;entryY=1;entryDx=0;entryDy=0;entryPerimeter=0;exitX=0;exitY=0;exitDx=0;exitDy=0;" parent="1" source="bfzXdQS3I7iuDDoht_DV-96" edge="1">
          <mxGeometry width="50" height="50" relative="1" as="geometry">
            <mxPoint x="800" y="1065" as="sourcePoint" />
            <mxPoint x="806" y="925" as="targetPoint" />
          </mxGeometry>
        </mxCell>
        <mxCell id="bfzXdQS3I7iuDDoht_DV-105" value="" style="endArrow=none;html=1;rounded=0;entryX=0;entryY=0.5;entryDx=0;entryDy=0;exitX=1;exitY=0;exitDx=0;exitDy=0;exitPerimeter=0;" parent="1" target="bfzXdQS3I7iuDDoht_DV-97" edge="1">
          <mxGeometry width="50" height="50" relative="1" as="geometry">
            <mxPoint x="806" y="865" as="sourcePoint" />
            <mxPoint x="530" y="725" as="targetPoint" />
          </mxGeometry>
        </mxCell>
        <mxCell id="bfzXdQS3I7iuDDoht_DV-106" value="" style="endArrow=none;html=1;rounded=0;entryX=0;entryY=0.5;entryDx=0;entryDy=0;exitX=1;exitY=0.5;exitDx=0;exitDy=0;exitPerimeter=0;" parent="1" target="bfzXdQS3I7iuDDoht_DV-98" edge="1">
          <mxGeometry width="50" height="50" relative="1" as="geometry">
            <mxPoint x="806" y="895" as="sourcePoint" />
            <mxPoint x="530" y="725" as="targetPoint" />
          </mxGeometry>
        </mxCell>
        <mxCell id="bfzXdQS3I7iuDDoht_DV-108" value="nome" style="ellipse;whiteSpace=wrap;html=1;" parent="1" vertex="1">
          <mxGeometry x="192" y="785" width="70" height="50" as="geometry" />
        </mxCell>
        <mxCell id="bfzXdQS3I7iuDDoht_DV-109" value="mail" style="ellipse;whiteSpace=wrap;html=1;" parent="1" vertex="1">
          <mxGeometry x="122" y="975" width="70" height="50" as="geometry" />
        </mxCell>
        <mxCell id="bfzXdQS3I7iuDDoht_DV-111" value="cognome" style="ellipse;whiteSpace=wrap;html=1;" parent="1" vertex="1">
          <mxGeometry x="262" y="840" width="70" height="50" as="geometry" />
        </mxCell>
        <mxCell id="bfzXdQS3I7iuDDoht_DV-112" value="&lt;u&gt;id&lt;/u&gt;" style="ellipse;whiteSpace=wrap;html=1;" parent="1" vertex="1">
          <mxGeometry x="240" y="925" width="70" height="50" as="geometry" />
        </mxCell>
        <mxCell id="bfzXdQS3I7iuDDoht_DV-113" value="" style="endArrow=none;html=1;rounded=0;entryX=0;entryY=1;entryDx=0;entryDy=0;exitX=0.75;exitY=0;exitDx=0;exitDy=0;" parent="1" source="bfzXdQS3I7iuDDoht_DV-10" target="bfzXdQS3I7iuDDoht_DV-108" edge="1">
          <mxGeometry width="50" height="50" relative="1" as="geometry">
            <mxPoint x="392" y="888" as="sourcePoint" />
            <mxPoint x="530" y="868" as="targetPoint" />
          </mxGeometry>
        </mxCell>
        <mxCell id="bfzXdQS3I7iuDDoht_DV-114" value="" style="endArrow=none;html=1;rounded=0;entryX=0;entryY=0.5;entryDx=0;entryDy=0;exitX=1;exitY=0;exitDx=0;exitDy=0;" parent="1" source="bfzXdQS3I7iuDDoht_DV-10" target="bfzXdQS3I7iuDDoht_DV-111" edge="1">
          <mxGeometry width="50" height="50" relative="1" as="geometry">
            <mxPoint x="362" y="888" as="sourcePoint" />
            <mxPoint x="810" y="1008" as="targetPoint" />
          </mxGeometry>
        </mxCell>
        <mxCell id="bfzXdQS3I7iuDDoht_DV-116" value="" style="endArrow=none;html=1;rounded=0;entryX=0.5;entryY=0;entryDx=0;entryDy=0;exitX=0.75;exitY=1;exitDx=0;exitDy=0;" parent="1" source="bfzXdQS3I7iuDDoht_DV-10" target="bfzXdQS3I7iuDDoht_DV-109" edge="1">
          <mxGeometry width="50" height="50" relative="1" as="geometry">
            <mxPoint x="362" y="933" as="sourcePoint" />
            <mxPoint x="810" y="1008" as="targetPoint" />
          </mxGeometry>
        </mxCell>
        <mxCell id="bfzXdQS3I7iuDDoht_DV-117" value="" style="endArrow=none;html=1;rounded=0;entryX=1;entryY=1;entryDx=0;entryDy=0;exitX=0;exitY=0.5;exitDx=0;exitDy=0;" parent="1" source="bfzXdQS3I7iuDDoht_DV-112" target="bfzXdQS3I7iuDDoht_DV-10" edge="1">
          <mxGeometry width="50" height="50" relative="1" as="geometry">
            <mxPoint x="760" y="1058" as="sourcePoint" />
            <mxPoint x="392" y="948" as="targetPoint" />
          </mxGeometry>
        </mxCell>
        <mxCell id="bfzXdQS3I7iuDDoht_DV-118" value="cap" style="ellipse;whiteSpace=wrap;html=1;" parent="1" vertex="1">
          <mxGeometry x="530" y="615" width="70" height="50" as="geometry" />
        </mxCell>
        <mxCell id="bfzXdQS3I7iuDDoht_DV-119" value="" style="endArrow=none;html=1;rounded=0;exitX=0.25;exitY=0;exitDx=0;exitDy=0;entryX=0.5;entryY=1;entryDx=0;entryDy=0;" parent="1" source="bfzXdQS3I7iuDDoht_DV-3" target="bfzXdQS3I7iuDDoht_DV-118" edge="1">
          <mxGeometry width="50" height="50" relative="1" as="geometry">
            <mxPoint x="579" y="715" as="sourcePoint" />
            <mxPoint x="552" y="685" as="targetPoint" />
          </mxGeometry>
        </mxCell>
        <mxCell id="bfzXdQS3I7iuDDoht_DV-120" value="cap" style="ellipse;whiteSpace=wrap;html=1;" parent="1" vertex="1">
          <mxGeometry x="170" y="470" width="70" height="50" as="geometry" />
        </mxCell>
        <mxCell id="bfzXdQS3I7iuDDoht_DV-121" value="" style="endArrow=none;html=1;rounded=0;entryX=0.5;entryY=0;entryDx=0;entryDy=0;exitX=0.75;exitY=1;exitDx=0;exitDy=0;" parent="1" source="bfzXdQS3I7iuDDoht_DV-1" target="bfzXdQS3I7iuDDoht_DV-120" edge="1">
          <mxGeometry width="50" height="50" relative="1" as="geometry">
            <mxPoint x="150" y="410" as="sourcePoint" />
            <mxPoint x="40" y="680" as="targetPoint" />
          </mxGeometry>
        </mxCell>
        <mxCell id="bfzXdQS3I7iuDDoht_DV-122" value="specializzazione" style="ellipse;whiteSpace=wrap;html=1;" parent="1" vertex="1">
          <mxGeometry x="480" y="790" width="110" height="50" as="geometry" />
        </mxCell>
        <mxCell id="bfzXdQS3I7iuDDoht_DV-123" value="" style="endArrow=none;html=1;rounded=0;entryX=0.5;entryY=0;entryDx=0;entryDy=0;exitX=0;exitY=1;exitDx=0;exitDy=0;" parent="1" source="bfzXdQS3I7iuDDoht_DV-3" target="bfzXdQS3I7iuDDoht_DV-122" edge="1">
          <mxGeometry width="50" height="50" relative="1" as="geometry">
            <mxPoint x="492" y="890" as="sourcePoint" />
            <mxPoint x="350" y="1000" as="targetPoint" />
          </mxGeometry>
        </mxCell>
        <mxCell id="bfzXdQS3I7iuDDoht_DV-130" value="indirizzo" style="ellipse;whiteSpace=wrap;html=1;" parent="1" vertex="1">
          <mxGeometry x="160" y="265" width="70" height="50" as="geometry" />
        </mxCell>
        <mxCell id="bfzXdQS3I7iuDDoht_DV-131" value="" style="endArrow=none;html=1;rounded=0;entryX=0.5;entryY=1;entryDx=0;entryDy=0;exitX=0.817;exitY=-0.017;exitDx=0;exitDy=0;exitPerimeter=0;" parent="1" source="bfzXdQS3I7iuDDoht_DV-1" target="bfzXdQS3I7iuDDoht_DV-130" edge="1">
          <mxGeometry width="50" height="50" relative="1" as="geometry">
            <mxPoint x="160" y="385" as="sourcePoint" />
            <mxPoint x="210" y="335" as="targetPoint" />
          </mxGeometry>
        </mxCell>
        <mxCell id="uaoDRE2ud9fjamOJprQ8-1" value="CLASSE" style="rounded=0;whiteSpace=wrap;html=1;" parent="1" vertex="1">
          <mxGeometry x="-180" y="610" width="120" height="60" as="geometry" />
        </mxCell>
        <mxCell id="uaoDRE2ud9fjamOJprQ8-5" value="appartiene" style="rhombus;whiteSpace=wrap;html=1;" parent="1" vertex="1">
          <mxGeometry x="-160" y="355" width="80" height="80" as="geometry" />
        </mxCell>
        <mxCell id="uaoDRE2ud9fjamOJprQ8-6" value="appartiene" style="rhombus;whiteSpace=wrap;html=1;" parent="1" vertex="1">
          <mxGeometry x="-160" y="855" width="80" height="80" as="geometry" />
        </mxCell>
        <mxCell id="uaoDRE2ud9fjamOJprQ8-7" value="" style="endArrow=none;html=1;rounded=0;entryX=0.5;entryY=0;entryDx=0;entryDy=0;exitX=0.5;exitY=1;exitDx=0;exitDy=0;" parent="1" source="uaoDRE2ud9fjamOJprQ8-1" target="uaoDRE2ud9fjamOJprQ8-6" edge="1">
          <mxGeometry width="50" height="50" relative="1" as="geometry">
            <mxPoint x="-140" y="625" as="sourcePoint" />
            <mxPoint x="-90" y="575" as="targetPoint" />
          </mxGeometry>
        </mxCell>
        <mxCell id="uaoDRE2ud9fjamOJprQ8-24" value="1" style="edgeLabel;html=1;align=center;verticalAlign=middle;resizable=0;points=[];" parent="uaoDRE2ud9fjamOJprQ8-7" vertex="1" connectable="0">
          <mxGeometry x="0.8029" y="-2" relative="1" as="geometry">
            <mxPoint as="offset" />
          </mxGeometry>
        </mxCell>
        <mxCell id="uaoDRE2ud9fjamOJprQ8-8" value="" style="endArrow=none;html=1;rounded=0;entryX=0.5;entryY=1;entryDx=0;entryDy=0;exitX=0.5;exitY=0;exitDx=0;exitDy=0;" parent="1" source="uaoDRE2ud9fjamOJprQ8-1" target="uaoDRE2ud9fjamOJprQ8-5" edge="1">
          <mxGeometry width="50" height="50" relative="1" as="geometry">
            <mxPoint x="-240" y="585" as="sourcePoint" />
            <mxPoint x="-190" y="535" as="targetPoint" />
            <Array as="points">
              <mxPoint x="-120" y="465" />
            </Array>
          </mxGeometry>
        </mxCell>
        <mxCell id="uaoDRE2ud9fjamOJprQ8-23" value="N" style="edgeLabel;html=1;align=center;verticalAlign=middle;resizable=0;points=[];" parent="uaoDRE2ud9fjamOJprQ8-8" vertex="1" connectable="0">
          <mxGeometry x="0.805" y="-3" relative="1" as="geometry">
            <mxPoint x="-3" y="3" as="offset" />
          </mxGeometry>
        </mxCell>
        <mxCell id="uaoDRE2ud9fjamOJprQ8-9" value="" style="endArrow=none;html=1;rounded=0;entryX=0;entryY=0.5;entryDx=0;entryDy=0;exitX=1;exitY=0.5;exitDx=0;exitDy=0;" parent="1" source="uaoDRE2ud9fjamOJprQ8-5" target="bfzXdQS3I7iuDDoht_DV-1" edge="1">
          <mxGeometry width="50" height="50" relative="1" as="geometry">
            <mxPoint x="-370" y="575" as="sourcePoint" />
            <mxPoint x="-320" y="525" as="targetPoint" />
          </mxGeometry>
        </mxCell>
        <mxCell id="uaoDRE2ud9fjamOJprQ8-22" value="1" style="edgeLabel;html=1;align=center;verticalAlign=middle;resizable=0;points=[];" parent="uaoDRE2ud9fjamOJprQ8-9" vertex="1" connectable="0">
          <mxGeometry x="-0.6863" y="-1" relative="1" as="geometry">
            <mxPoint as="offset" />
          </mxGeometry>
        </mxCell>
        <mxCell id="uaoDRE2ud9fjamOJprQ8-10" value="" style="endArrow=none;html=1;rounded=0;exitX=1;exitY=0.5;exitDx=0;exitDy=0;entryX=0;entryY=0.5;entryDx=0;entryDy=0;" parent="1" source="uaoDRE2ud9fjamOJprQ8-6" target="bfzXdQS3I7iuDDoht_DV-10" edge="1">
          <mxGeometry width="50" height="50" relative="1" as="geometry">
            <mxPoint x="-10" y="895" as="sourcePoint" />
            <mxPoint x="40" y="845" as="targetPoint" />
          </mxGeometry>
        </mxCell>
        <mxCell id="uaoDRE2ud9fjamOJprQ8-56" value="1" style="edgeLabel;html=1;align=center;verticalAlign=middle;resizable=0;points=[];" parent="uaoDRE2ud9fjamOJprQ8-10" vertex="1" connectable="0">
          <mxGeometry x="-0.7081" y="-2" relative="1" as="geometry">
            <mxPoint as="offset" />
          </mxGeometry>
        </mxCell>
        <mxCell id="uaoDRE2ud9fjamOJprQ8-13" value="&lt;u&gt;anno&lt;/u&gt;" style="ellipse;whiteSpace=wrap;html=1;" parent="1" vertex="1">
          <mxGeometry x="-310" y="615" width="70" height="50" as="geometry" />
        </mxCell>
        <mxCell id="uaoDRE2ud9fjamOJprQ8-14" value="indirizzo" style="ellipse;whiteSpace=wrap;html=1;" parent="1" vertex="1">
          <mxGeometry x="-260" y="530" width="70" height="50" as="geometry" />
        </mxCell>
        <mxCell id="uaoDRE2ud9fjamOJprQ8-15" value="periodoStage" style="ellipse;whiteSpace=wrap;html=1;" parent="1" vertex="1">
          <mxGeometry x="-260" y="705" width="80" height="50" as="geometry" />
        </mxCell>
        <mxCell id="uaoDRE2ud9fjamOJprQ8-19" value="" style="endArrow=none;html=1;rounded=0;entryX=0.25;entryY=1;entryDx=0;entryDy=0;exitX=1;exitY=0;exitDx=0;exitDy=0;" parent="1" source="uaoDRE2ud9fjamOJprQ8-15" target="uaoDRE2ud9fjamOJprQ8-1" edge="1">
          <mxGeometry width="50" height="50" relative="1" as="geometry">
            <mxPoint x="-250" y="735" as="sourcePoint" />
            <mxPoint x="-200" y="685" as="targetPoint" />
          </mxGeometry>
        </mxCell>
        <mxCell id="uaoDRE2ud9fjamOJprQ8-20" value="" style="endArrow=none;html=1;rounded=0;exitX=1;exitY=0.5;exitDx=0;exitDy=0;entryX=0;entryY=0.5;entryDx=0;entryDy=0;" parent="1" source="uaoDRE2ud9fjamOJprQ8-13" target="uaoDRE2ud9fjamOJprQ8-1" edge="1">
          <mxGeometry width="50" height="50" relative="1" as="geometry">
            <mxPoint x="-240" y="645" as="sourcePoint" />
            <mxPoint x="-190" y="595" as="targetPoint" />
          </mxGeometry>
        </mxCell>
        <mxCell id="uaoDRE2ud9fjamOJprQ8-21" value="" style="endArrow=none;html=1;rounded=0;entryX=0.25;entryY=0;entryDx=0;entryDy=0;exitX=1;exitY=1;exitDx=0;exitDy=0;" parent="1" source="uaoDRE2ud9fjamOJprQ8-14" target="uaoDRE2ud9fjamOJprQ8-1" edge="1">
          <mxGeometry width="50" height="50" relative="1" as="geometry">
            <mxPoint x="-430" y="675" as="sourcePoint" />
            <mxPoint x="-380" y="625" as="targetPoint" />
          </mxGeometry>
        </mxCell>
        <mxCell id="uaoDRE2ud9fjamOJprQ8-36" value="&lt;u&gt;name&lt;/u&gt;" style="ellipse;whiteSpace=wrap;html=1;" parent="1" vertex="1">
          <mxGeometry x="-40" y="555" width="70" height="50" as="geometry" />
        </mxCell>
        <mxCell id="uaoDRE2ud9fjamOJprQ8-37" value="" style="endArrow=none;html=1;rounded=0;exitX=0.75;exitY=0;exitDx=0;exitDy=0;" parent="1" source="uaoDRE2ud9fjamOJprQ8-1" target="uaoDRE2ud9fjamOJprQ8-36" edge="1">
          <mxGeometry width="50" height="50" relative="1" as="geometry">
            <mxPoint x="-50" y="745" as="sourcePoint" />
            <mxPoint y="695" as="targetPoint" />
          </mxGeometry>
        </mxCell>
        <mxCell id="uaoDRE2ud9fjamOJprQ8-38" value="materia" style="ellipse;whiteSpace=wrap;html=1;" parent="1" vertex="1">
          <mxGeometry x="240" y="315" width="70" height="50" as="geometry" />
        </mxCell>
        <mxCell id="uaoDRE2ud9fjamOJprQ8-39" value="" style="endArrow=none;html=1;rounded=0;entryX=0.053;entryY=0.824;entryDx=0;entryDy=0;entryPerimeter=0;exitX=1;exitY=0.25;exitDx=0;exitDy=0;" parent="1" source="bfzXdQS3I7iuDDoht_DV-1" target="uaoDRE2ud9fjamOJprQ8-38" edge="1">
          <mxGeometry width="50" height="50" relative="1" as="geometry">
            <mxPoint x="250" y="465" as="sourcePoint" />
            <mxPoint x="300" y="415" as="targetPoint" />
          </mxGeometry>
        </mxCell>
        <mxCell id="uaoDRE2ud9fjamOJprQ8-42" value="voto" style="ellipse;whiteSpace=wrap;html=1;" parent="1" vertex="1">
          <mxGeometry x="252" y="405" width="70" height="50" as="geometry" />
        </mxCell>
        <mxCell id="uaoDRE2ud9fjamOJprQ8-43" value="" style="endArrow=none;html=1;rounded=0;entryX=0;entryY=0.5;entryDx=0;entryDy=0;exitX=1;exitY=0.75;exitDx=0;exitDy=0;" parent="1" source="bfzXdQS3I7iuDDoht_DV-1" target="uaoDRE2ud9fjamOJprQ8-42" edge="1">
          <mxGeometry width="50" height="50" relative="1" as="geometry">
            <mxPoint x="256.40999999999997" y="465" as="sourcePoint" />
            <mxPoint x="256.40999999999997" y="350" as="targetPoint" />
          </mxGeometry>
        </mxCell>
        <mxCell id="uaoDRE2ud9fjamOJprQ8-48" value="password" style="ellipse;whiteSpace=wrap;html=1;" parent="1" vertex="1">
          <mxGeometry x="-50" y="335" width="70" height="50" as="geometry" />
        </mxCell>
        <mxCell id="uaoDRE2ud9fjamOJprQ8-49" value="" style="endArrow=none;html=1;rounded=0;entryX=0;entryY=0.25;entryDx=0;entryDy=0;exitX=1;exitY=0.5;exitDx=0;exitDy=0;" parent="1" source="uaoDRE2ud9fjamOJprQ8-48" target="bfzXdQS3I7iuDDoht_DV-1" edge="1">
          <mxGeometry width="50" height="50" relative="1" as="geometry">
            <mxPoint x="-50" y="495" as="sourcePoint" />
            <mxPoint y="445" as="targetPoint" />
          </mxGeometry>
        </mxCell>
        <mxCell id="uaoDRE2ud9fjamOJprQ8-52" value="password" style="ellipse;whiteSpace=wrap;html=1;" parent="1" vertex="1">
          <mxGeometry x="20" y="790" width="70" height="50" as="geometry" />
        </mxCell>
        <mxCell id="uaoDRE2ud9fjamOJprQ8-53" value="" style="endArrow=none;html=1;rounded=0;entryX=0.25;entryY=0;entryDx=0;entryDy=0;exitX=1;exitY=1;exitDx=0;exitDy=0;" parent="1" source="uaoDRE2ud9fjamOJprQ8-52" target="bfzXdQS3I7iuDDoht_DV-10" edge="1">
          <mxGeometry width="50" height="50" relative="1" as="geometry">
            <mxPoint x="-10" y="950" as="sourcePoint" />
            <mxPoint x="122" y="835" as="targetPoint" />
          </mxGeometry>
        </mxCell>
        <mxCell id="uaoDRE2ud9fjamOJprQ8-54" value="ruolo" style="ellipse;whiteSpace=wrap;html=1;" parent="1" vertex="1">
          <mxGeometry x="452" y="70" width="70" height="50" as="geometry" />
        </mxCell>
        <mxCell id="uaoDRE2ud9fjamOJprQ8-55" value="" style="endArrow=none;html=1;rounded=0;entryX=0;entryY=1;entryDx=0;entryDy=0;exitX=0;exitY=0;exitDx=75;exitDy=0;exitPerimeter=0;" parent="1" target="uaoDRE2ud9fjamOJprQ8-54" edge="1">
          <mxGeometry width="50" height="50" relative="1" as="geometry">
            <mxPoint x="427" y="175" as="sourcePoint" />
            <mxPoint x="640" y="160" as="targetPoint" />
          </mxGeometry>
        </mxCell>
        <mxCell id="GKd4hPte7HjJMeYPoFDm-1" value="DIARIO" style="rounded=0;whiteSpace=wrap;html=1;" vertex="1" parent="1">
          <mxGeometry x="347" y="175" width="120" height="60" as="geometry" />
        </mxCell>
        <mxCell id="GKd4hPte7HjJMeYPoFDm-2" value="RECENSIONE" style="rounded=0;whiteSpace=wrap;html=1;" vertex="1" parent="1">
          <mxGeometry x="570" y="365" width="120" height="60" as="geometry" />
        </mxCell>
        <mxCell id="GKd4hPte7HjJMeYPoFDm-3" value="TUTOR" style="rounded=0;whiteSpace=wrap;html=1;" vertex="1" parent="1">
          <mxGeometry x="700" y="865" width="120" height="60" as="geometry" />
        </mxCell>
      </root>
    </mxGraphModel>
  </diagram>
</mxfile>
